# xmcd
#
# Track frame offsets: 
#        150
#        12592
#        27417
#        38287
#        52072
#        65475
#        80682
#        93172
#        106942
#        117252
#        131542
#        143730
#        157355
#        169350
#        182970
#
# Disc length: 2585 seconds
#
# Revision: 4
# Processed by: cddbd v1.5.2PL0 Copyright (c) Steve Scherf et al.
# Submitted via: ExactAudioCopy v1.0b1
#
DISCID=d10a170f
DTITLE=Various Artist - Whose Muddy Shoes
DYEAR=1900
DGENRE=Blues
TTITLE0=John Brim - Ice Cream Man (mono)
TTITLE1=Elmore James - Whose Muddy Shoes (mono)
TTITLE2=Elmore James - Madison Blues (mono)
TTITLE3=Elmore James - I See My Baby (mono)
TTITLE4=John Brim - You Got Me (mono)
TTITLE5=Elmore James - My Best Friend (mono)
TTITLE6=Elmore James - The Sun Is Shining (mono)
TTITLE7=John Brim - Lifetime Baby (mono)
TTITLE8=Elmore James - I Can't Hold Out (Talk To Me Baby) (mono)
TTITLE9=John Brim - Rattlesnake (mono)
TTITLE10=John Brim - Be Careful What You Do (mono)
TTITLE11=Elmore James - She Just Won't Do Right (Dust My Broom) (mono)
TTITLE12=Elmore James - Country Boogie (Tool Bag Boogie) (mono)
TTITLE13=John Brim - Tough Times (mono)
TTITLE14=Elmore James - Stormy Monday (mono)
EXTD=
EXTT0=
EXTT1=
EXTT2=
EXTT3=
EXTT4=
EXTT5=
EXTT6=
EXTT7=
EXTT8=
EXTT9=
EXTT10=
EXTT11=
EXTT12=
EXTT13=
EXTT14=
PLAYORDER=
